<svg xmlns="http://www.w3.org/2000/svg" xmlns:xlink="http://www.w3.org/1999/xlink" version="1.1" x="0px" y="0px" viewBox="-55 147 500 625" style="enable-background:new -55 147 500 500;" xml:space="preserve"><path d="M130.7,480.6h263.6c9,0,17.1-5.4,20.6-13.7l29.9-188.8c1.8-11.1-6.8-21.1-18-21.1H79.9L52,156.7c-1.5-5.7-6.8-9.7-12.8-9.7  h-81c-7.3,0-13.2,5.9-13.2,13.2s5.9,13.2,13.3,13.2h70.9l79.4,285.8c-16.5,7.9-28.3,24.2-29,43.1c-0.5,13.7,4.5,26.7,14.1,36.5  c1.1,1.2,2.3,2.2,3.5,3.3c-13.1,10.9-21.5,27.3-21.5,45.5c0,32.7,26.8,59.4,59.8,59.4c32.9,0,59.8-26.6,59.8-59.4  c0-12.4-3.9-24-10.5-33.6h143.5c-6.6,9.6-10.5,21.1-10.5,33.6c0,32.7,26.8,59.4,59.8,59.4c32.9,0,59.8-26.6,59.8-59.4  c0-32.7-27.5-59.9-60.5-59.9c-2.7,0-246.9-0.1-246.9-0.1c-6.5,0-12.6-2.6-17.1-7.2s-6.9-10.8-6.6-17.2  C106.5,490.8,117.6,480.6,130.7,480.6z M377.5,565.9c12,0,21.7,9.7,21.7,21.7s-9.7,21.8-21.7,21.8s-21.7-9.7-21.7-21.8  C355.7,575.6,365.4,565.9,377.5,565.9z M135.4,565.9c12,0,21.7,9.7,21.7,21.7s-9.7,21.8-21.7,21.8s-21.7-9.7-21.7-21.8  C113.6,575.6,123.4,565.9,135.4,565.9z"/><text x="-55" y="662" fill="#000000" font-size="5px" font-weight="bold" font-family="'Helvetica Neue', Helvetica, Arial-Unicode, Arial, Sans-serif">Created by Serhii Smirnov</text><text x="-55" y="667" fill="#000000" font-size="5px" font-weight="bold" font-family="'Helvetica Neue', Helvetica, Arial-Unicode, Arial, Sans-serif">from the Noun Project</text></svg>