<svg xmlns="http://www.w3.org/2000/svg" xmlns:xlink="http://www.w3.org/1999/xlink" version="1.1" x="0px" y="0px" viewBox="0 0 100 125" style="enable-background:new 0 0 100 100;" xml:space="preserve"><style type="text/css">
	.st0{fill:none;stroke:#000000;stroke-width:3;stroke-miterlimit:10;}
	.st1{fill:none;stroke:#000000;stroke-width:2;stroke-miterlimit:10;}
	.st2{stroke:#000000;stroke-width:0.75;stroke-miterlimit:10;}
	.st3{fill:#FFFFFF;stroke:#000000;stroke-width:3;stroke-miterlimit:10;}
	.st4{fill:none;}
	.st5{fill:none;stroke:#000000;stroke-width:7;stroke-miterlimit:10;}
	.st6{fill:none;stroke:#000000;stroke-width:4;stroke-linecap:round;stroke-miterlimit:10;}
	.st7{fill:none;stroke:#000000;stroke-width:7;stroke-linecap:round;stroke-linejoin:round;stroke-miterlimit:10;}
	.st8{fill:none;stroke:#000000;stroke-width:10;stroke-miterlimit:10;}
	.st9{fill:none;stroke:#000000;stroke-width:10;stroke-linecap:round;stroke-linejoin:round;stroke-miterlimit:10;}
	.st10{fill:none;stroke:#000000;stroke-width:5;stroke-miterlimit:10;}
	.st11{fill:none;stroke:#000000;stroke-width:5;stroke-linecap:round;stroke-miterlimit:10;}
	.st12{fill:none;stroke:#000000;stroke-width:10;stroke-linecap:square;stroke-linejoin:round;stroke-miterlimit:10;}
	.st13{fill:none;stroke:#000000;stroke-width:5;stroke-linecap:square;stroke-miterlimit:10;}
	.st14{fill:none;stroke:#000000;stroke-width:12;stroke-miterlimit:10;}
	.st15{fill:none;stroke:#000000;stroke-width:12;stroke-linecap:round;stroke-linejoin:round;stroke-miterlimit:10;}
	.st16{fill:none;stroke:#000000;stroke-width:16;stroke-miterlimit:10;}
	.st17{fill:none;stroke:#000000;stroke-width:16;stroke-linecap:round;stroke-linejoin:round;stroke-miterlimit:10;}
	.st18{fill:none;stroke:#000000;stroke-width:14;stroke-miterlimit:10;}
	.st19{fill:none;stroke:#000000;stroke-width:14;stroke-linecap:round;stroke-linejoin:round;stroke-miterlimit:10;}
	.st20{fill:none;stroke:#000000;stroke-width:4;stroke-linejoin:round;stroke-miterlimit:10;}
	.st21{fill:none;stroke:#000000;stroke-width:10;stroke-linejoin:round;stroke-miterlimit:10;}
	.st22{fill:none;stroke:#000000;stroke-width:5;stroke-linejoin:round;stroke-miterlimit:10;}
	.st23{fill:none;stroke:#000000;stroke-width:5;stroke-linecap:round;stroke-linejoin:round;stroke-miterlimit:10;}
	.st24{stroke:#000000;stroke-width:5;stroke-miterlimit:10;}
	.st25{fill:none;stroke:#FFFFFF;stroke-width:5;stroke-linecap:square;stroke-miterlimit:10;}
	.st26{fill:none;stroke:#FFFFFF;stroke-width:4;stroke-linecap:round;stroke-miterlimit:10;}
	.st27{fill:none;stroke:#000000;stroke-width:8;stroke-miterlimit:10;}
	.st28{fill:none;stroke:#FFFFFF;stroke-width:4;stroke-miterlimit:10;}
	.st29{fill:none;stroke:#FFFFFF;stroke-width:5;stroke-miterlimit:10;}
	.st30{fill:#FFFFFF;stroke:#000000;stroke-width:7;stroke-miterlimit:10;}
</style><g><path class="st4" d="M39.4,68c15.7,0,28.4-12.7,28.4-28.4c0-15.7-12.7-28.4-28.4-28.4S11,24,11,39.6C11,55.3,23.7,68,39.4,68z    M40.5,15.9C53,15.9,63.1,26,63.1,38.5c0,1.4-1.1,2.5-2.5,2.5s-2.5-1.1-2.5-2.5c0-9.7-7.9-17.6-17.6-17.6c-1.4,0-2.5-1.1-2.5-2.5   S39.1,15.9,40.5,15.9z"/><path d="M39.4,75c19.5,0,35.4-15.9,35.4-35.4c0-19.5-15.9-35.4-35.4-35.4C19.9,4.2,4,20.1,4,39.6C4,59.1,19.9,75,39.4,75z    M39.4,11.2c15.7,0,28.4,12.7,28.4,28.4C67.8,55.3,55.1,68,39.4,68S11,55.3,11,39.6C11,24,23.7,11.2,39.4,11.2z"/><path d="M40.5,20.9c9.7,0,17.6,7.9,17.6,17.6c0,1.4,1.1,2.5,2.5,2.5s2.5-1.1,2.5-2.5C63.1,26,53,15.9,40.5,15.9   c-1.4,0-2.5,1.1-2.5,2.5S39.1,20.9,40.5,20.9z"/><path d="M67.8,67.5c-2,2-2,5.1,0,7.1L89,95.8c1,1,2.3,1.5,3.5,1.5s2.6-0.5,3.5-1.5c2-2,2-5.1,0-7.1L74.8,67.5   C72.9,65.6,69.7,65.6,67.8,67.5z"/></g><text x="0" y="115" fill="#000000" font-size="5px" font-weight="bold" font-family="'Helvetica Neue', Helvetica, Arial-Unicode, Arial, Sans-serif">Created by Anastasia Latysheva</text><text x="0" y="120" fill="#000000" font-size="5px" font-weight="bold" font-family="'Helvetica Neue', Helvetica, Arial-Unicode, Arial, Sans-serif">from the Noun Project</text></svg>